<svg width="432" height="512" viewBox="0 0 432 512" fill="none" xmlns="http://www.w3.org/2000/svg">
<path fill-rule="evenodd" clip-rule="evenodd" d="M5.81928 366.336C-0.804955 360.488 -0.773229 350.315 5.47516 344.067C11.7235 337.819 21.8188 337.867 28.4947 343.656C67.794 377.737 119.079 398.361 175.181 398.361C298.893 398.361 399.181 298.073 399.181 174.361C399.181 118.26 378.556 66.9747 344.476 27.6755C338.686 20.9996 338.638 10.9043 344.886 4.65588C351.135 -1.59251 361.307 -1.62423 367.155 5.00002C407.002 50.1321 431.181 109.423 431.181 174.361C431.181 310.373 325.113 421.61 191.181 429.87V480H260.515C269.351 480 276.515 487.163 276.515 496C276.515 504.837 269.351 512 260.515 512H89.848C81.0114 512 73.848 504.837 73.848 496C73.848 487.163 81.0114 480 89.848 480H159.181V429.87C100.527 426.253 47.2168 402.885 5.81928 366.336ZM275.274 270.329C250.037 296.645 214.522 313.028 175.181 313.028C135.84 313.028 100.326 296.645 75.0882 270.329H143.181C152.018 270.329 159.181 263.166 159.181 254.329C159.181 245.493 152.018 238.329 143.181 238.329H56.5257C55.0777 238.329 53.6953 238.513 52.3927 238.853C44.6088 224.064 39.4187 207.696 37.4271 190.356H143.181C152.017 190.356 159.181 183.193 159.181 174.356C159.181 165.52 152.017 158.356 143.181 158.356H37.4283C39.4214 141.014 44.6136 124.646 52.3999 109.856C53.7004 110.195 55.0804 110.378 56.5257 110.378H143.181C152.018 110.378 159.181 103.214 159.181 94.3776C159.181 85.541 152.018 78.3776 143.181 78.3776H75.1032C100.34 52.0711 135.848 35.6947 175.181 35.6947C214.514 35.6947 250.023 52.0711 275.259 78.3776H207.181C198.345 78.3776 191.181 85.541 191.181 94.3776C191.181 103.214 198.345 110.378 207.181 110.378H293.837C295.282 110.378 296.662 110.195 297.963 109.856C305.749 124.646 310.941 141.014 312.934 158.356H207.181C198.344 158.356 191.181 165.52 191.181 174.356C191.181 183.193 198.344 190.356 207.181 190.356H312.935C310.944 207.696 305.754 224.064 297.97 238.853C296.667 238.513 295.285 238.329 293.837 238.329H207.181C198.345 238.329 191.181 245.493 191.181 254.329C191.181 263.166 198.345 270.329 207.181 270.329H275.274ZM345.848 174.361C345.848 268.618 269.438 345.028 175.181 345.028C80.9247 345.028 4.51462 268.618 4.51462 174.361C4.51462 80.1047 80.9247 3.69466 175.181 3.69466C269.438 3.69466 345.848 80.1047 345.848 174.361Z" fill="black"/>
</svg>
